<mxfile host="app.diagrams.net" agent="Mozilla/5.0 (Windows NT 10.0; Win64; x64; rv:144.0) Gecko/20100101 Firefox/144.0" version="28.2.8">
  <diagram name="Page-1" id="9TotaVrWxx92AggmXr8s">
    <mxGraphModel dx="1426" dy="725" grid="1" gridSize="10" guides="1" tooltips="1" connect="1" arrows="1" fold="1" page="1" pageScale="1" pageWidth="850" pageHeight="1100" background="#ffffff" math="0" shadow="0">
      <root>
        <mxCell id="0" />
        <mxCell id="1" parent="0" />
        <mxCell id="qfN-WEjrHHxF7JBa_rxf-5" value="&lt;b&gt;ASVS&lt;/b&gt;" style="rounded=0;whiteSpace=wrap;html=1;" vertex="1" parent="1">
          <mxGeometry x="117" y="318" width="120" height="70" as="geometry" />
        </mxCell>
        <mxCell id="qfN-WEjrHHxF7JBa_rxf-6" value="&lt;ul&gt;&lt;li&gt;&lt;b&gt;SAST (Coverity, Veracode, Arnica)&lt;/b&gt;&lt;/li&gt;&lt;li&gt;&lt;b&gt;DAST (Contrast, BurSuite)&lt;/b&gt;&lt;/li&gt;&lt;li&gt;&lt;b&gt;IAST (Seeker, SecSci AutoPT)&lt;/b&gt;&lt;/li&gt;&lt;li&gt;&lt;b&gt;SCA (WhiteSource/Mend, Arnica)&lt;/b&gt;&lt;/li&gt;&lt;li&gt;&lt;b&gt;Secrets Scan (GitLeaks, Arnica)&lt;/b&gt;&lt;/li&gt;&lt;li&gt;&lt;b&gt;Image Scan (&lt;/b&gt;&lt;b&gt;AquaSec, XRay&lt;/b&gt;&lt;b&gt;)&lt;/b&gt;&lt;/li&gt;&lt;li&gt;&lt;b&gt;Code Quality Scan (SonarQube)&lt;/b&gt;&lt;/li&gt;&lt;li&gt;&lt;b&gt;PenTest (SecSci AutoPT)&lt;/b&gt;&lt;/li&gt;&lt;li&gt;&lt;b&gt;Among Others&lt;/b&gt;&lt;/li&gt;&lt;/ul&gt;" style="rounded=0;whiteSpace=wrap;html=1;align=left;" vertex="1" parent="1">
          <mxGeometry x="537" y="263" width="240" height="180" as="geometry" />
        </mxCell>
        <mxCell id="qfN-WEjrHHxF7JBa_rxf-7" value="&lt;b&gt;Develop Security Tool&lt;/b&gt;" style="rounded=0;whiteSpace=wrap;html=1;" vertex="1" parent="1">
          <mxGeometry x="327" y="478" width="120" height="70" as="geometry" />
        </mxCell>
        <mxCell id="qfN-WEjrHHxF7JBa_rxf-8" value="&lt;div&gt;&lt;b&gt;Determine Source&lt;/b&gt;&lt;/div&gt;&lt;div&gt;&lt;b&gt;of Evidence&lt;/b&gt;&lt;/div&gt;" style="rounded=0;whiteSpace=wrap;html=1;" vertex="1" parent="1">
          <mxGeometry x="327" y="318" width="120" height="70" as="geometry" />
        </mxCell>
        <mxCell id="qfN-WEjrHHxF7JBa_rxf-12" value="" style="endArrow=classic;html=1;rounded=0;exitX=0.5;exitY=1;exitDx=0;exitDy=0;entryX=0.5;entryY=0;entryDx=0;entryDy=0;" edge="1" parent="1" source="qfN-WEjrHHxF7JBa_rxf-8" target="qfN-WEjrHHxF7JBa_rxf-7">
          <mxGeometry width="50" height="50" relative="1" as="geometry">
            <mxPoint x="427" y="548" as="sourcePoint" />
            <mxPoint x="477" y="498" as="targetPoint" />
          </mxGeometry>
        </mxCell>
        <mxCell id="qfN-WEjrHHxF7JBa_rxf-13" value="" style="endArrow=classic;startArrow=classic;html=1;rounded=0;exitX=1;exitY=0.5;exitDx=0;exitDy=0;entryX=0;entryY=0.5;entryDx=0;entryDy=0;" edge="1" parent="1" source="qfN-WEjrHHxF7JBa_rxf-8" target="qfN-WEjrHHxF7JBa_rxf-6">
          <mxGeometry width="50" height="50" relative="1" as="geometry">
            <mxPoint x="527" y="798" as="sourcePoint" />
            <mxPoint x="617" y="798" as="targetPoint" />
          </mxGeometry>
        </mxCell>
        <mxCell id="qfN-WEjrHHxF7JBa_rxf-14" value="" style="endArrow=classic;html=1;rounded=0;entryX=0.5;entryY=1;entryDx=0;entryDy=0;exitX=1;exitY=0.5;exitDx=0;exitDy=0;" edge="1" parent="1" source="qfN-WEjrHHxF7JBa_rxf-7" target="qfN-WEjrHHxF7JBa_rxf-6">
          <mxGeometry width="50" height="50" relative="1" as="geometry">
            <mxPoint x="427" y="548" as="sourcePoint" />
            <mxPoint x="477" y="498" as="targetPoint" />
          </mxGeometry>
        </mxCell>
        <mxCell id="qfN-WEjrHHxF7JBa_rxf-17" value="No Available Source of Data" style="text;html=1;whiteSpace=wrap;strokeColor=none;fillColor=none;align=center;verticalAlign=middle;rounded=0;" vertex="1" parent="1">
          <mxGeometry x="387" y="401" width="60" height="60" as="geometry" />
        </mxCell>
        <mxCell id="qfN-WEjrHHxF7JBa_rxf-20" value="&lt;b&gt;Check Requirement for Compliance&lt;/b&gt;" style="rounded=0;whiteSpace=wrap;html=1;" vertex="1" parent="1">
          <mxGeometry x="327" y="164" width="120" height="70" as="geometry" />
        </mxCell>
        <mxCell id="qfN-WEjrHHxF7JBa_rxf-21" value="Available Source of Data" style="text;html=1;whiteSpace=wrap;strokeColor=none;fillColor=none;align=center;verticalAlign=middle;rounded=0;" vertex="1" parent="1">
          <mxGeometry x="392" y="247" width="60" height="60" as="geometry" />
        </mxCell>
        <mxCell id="qfN-WEjrHHxF7JBa_rxf-22" value="" style="endArrow=classic;html=1;rounded=0;entryX=0.5;entryY=1;entryDx=0;entryDy=0;exitX=0.5;exitY=0;exitDx=0;exitDy=0;" edge="1" parent="1" source="qfN-WEjrHHxF7JBa_rxf-8" target="qfN-WEjrHHxF7JBa_rxf-20">
          <mxGeometry width="50" height="50" relative="1" as="geometry">
            <mxPoint x="427" y="467" as="sourcePoint" />
            <mxPoint x="477" y="417" as="targetPoint" />
          </mxGeometry>
        </mxCell>
        <mxCell id="qfN-WEjrHHxF7JBa_rxf-23" value="" style="endArrow=classic;html=1;rounded=0;entryX=0;entryY=0.5;entryDx=0;entryDy=0;exitX=1;exitY=0.5;exitDx=0;exitDy=0;" edge="1" parent="1" source="qfN-WEjrHHxF7JBa_rxf-5" target="qfN-WEjrHHxF7JBa_rxf-8">
          <mxGeometry width="50" height="50" relative="1" as="geometry">
            <mxPoint x="567" y="741" as="sourcePoint" />
            <mxPoint x="567" y="657" as="targetPoint" />
          </mxGeometry>
        </mxCell>
        <mxCell id="qfN-WEjrHHxF7JBa_rxf-24" value="" style="endArrow=classic;html=1;rounded=0;exitX=0;exitY=0.5;exitDx=0;exitDy=0;entryX=0.5;entryY=0;entryDx=0;entryDy=0;" edge="1" parent="1" source="qfN-WEjrHHxF7JBa_rxf-20" target="qfN-WEjrHHxF7JBa_rxf-5">
          <mxGeometry width="50" height="50" relative="1" as="geometry">
            <mxPoint x="427" y="467" as="sourcePoint" />
            <mxPoint x="477" y="417" as="targetPoint" />
          </mxGeometry>
        </mxCell>
        <mxCell id="qfN-WEjrHHxF7JBa_rxf-25" value="&lt;div&gt;Update ASVS&lt;/div&gt;&lt;div&gt;Requirement&lt;/div&gt;" style="text;html=1;whiteSpace=wrap;strokeColor=none;fillColor=none;align=center;verticalAlign=middle;rounded=0;rotation=0;" vertex="1" parent="1">
          <mxGeometry x="122" y="217" width="180" height="60" as="geometry" />
        </mxCell>
        <mxCell id="qfN-WEjrHHxF7JBa_rxf-26" value="" style="endArrow=classic;startArrow=classic;html=1;rounded=0;exitX=1;exitY=0.5;exitDx=0;exitDy=0;entryX=0.5;entryY=0;entryDx=0;entryDy=0;" edge="1" parent="1" source="qfN-WEjrHHxF7JBa_rxf-20" target="qfN-WEjrHHxF7JBa_rxf-6">
          <mxGeometry width="50" height="50" relative="1" as="geometry">
            <mxPoint x="547" y="617" as="sourcePoint" />
            <mxPoint x="637" y="617" as="targetPoint" />
          </mxGeometry>
        </mxCell>
        <mxCell id="qfN-WEjrHHxF7JBa_rxf-27" value="1" style="text;html=1;whiteSpace=wrap;strokeColor=none;fillColor=none;align=center;verticalAlign=middle;rounded=0;fontStyle=1" vertex="1" parent="1">
          <mxGeometry x="266" y="330" width="30" height="30" as="geometry" />
        </mxCell>
        <mxCell id="qfN-WEjrHHxF7JBa_rxf-28" value="2" style="text;html=1;whiteSpace=wrap;strokeColor=none;fillColor=none;align=center;verticalAlign=middle;rounded=0;fontStyle=1" vertex="1" parent="1">
          <mxGeometry x="475" y="329" width="30" height="30" as="geometry" />
        </mxCell>
        <mxCell id="qfN-WEjrHHxF7JBa_rxf-29" value="2a" style="text;html=1;whiteSpace=wrap;strokeColor=none;fillColor=none;align=center;verticalAlign=middle;rounded=0;fontStyle=1" vertex="1" parent="1">
          <mxGeometry x="362" y="416" width="30" height="30" as="geometry" />
        </mxCell>
        <mxCell id="qfN-WEjrHHxF7JBa_rxf-30" value="2b" style="text;html=1;whiteSpace=wrap;strokeColor=none;fillColor=none;align=center;verticalAlign=middle;rounded=0;fontStyle=1" vertex="1" parent="1">
          <mxGeometry x="527" y="477" width="30" height="30" as="geometry" />
        </mxCell>
        <mxCell id="qfN-WEjrHHxF7JBa_rxf-31" value="3" style="text;html=1;whiteSpace=wrap;strokeColor=none;fillColor=none;align=center;verticalAlign=middle;rounded=0;fontStyle=1" vertex="1" parent="1">
          <mxGeometry x="363" y="262" width="30" height="30" as="geometry" />
        </mxCell>
        <mxCell id="qfN-WEjrHHxF7JBa_rxf-32" value="4" style="text;html=1;whiteSpace=wrap;strokeColor=none;fillColor=none;align=center;verticalAlign=middle;rounded=0;fontStyle=1" vertex="1" parent="1">
          <mxGeometry x="527" y="202" width="30" height="30" as="geometry" />
        </mxCell>
        <mxCell id="qfN-WEjrHHxF7JBa_rxf-33" value="5" style="text;html=1;whiteSpace=wrap;strokeColor=none;fillColor=none;align=center;verticalAlign=middle;rounded=0;fontStyle=1" vertex="1" parent="1">
          <mxGeometry x="250" y="246" width="30" height="30" as="geometry" />
        </mxCell>
        <mxCell id="qfN-WEjrHHxF7JBa_rxf-34" value="&lt;h1 style=&quot;margin-top: 0px;&quot;&gt;Application Security Verification Standard (ASVS) Automation&lt;/h1&gt;&lt;p&gt;ASVS) Automation is an automated compliance framework that continuously evaluates applications against ASVS requirements using integrated security tools. It correlates findings from multiple sources — including SAST, DAST, IAST, SCA, Secrets Scan, Image Scan, Code Quality Scan, and Penetration Testing Automation — to determine whether each ASVS requirement is compliant or not. This automation enables consistent, real-time verification of security requirements across the software lifecycle, streamlining compliance reporting and reducing manual validation efforts..&lt;/p&gt;" style="text;html=1;whiteSpace=wrap;overflow=hidden;rounded=0;" vertex="1" parent="1">
          <mxGeometry x="43" y="20" width="767" height="210" as="geometry" />
        </mxCell>
      </root>
    </mxGraphModel>
  </diagram>
</mxfile>
